<svg width="36" height="36" viewBox="0 0 36 36" fill="none" xmlns="http://www.w3.org/2000/svg" xmlns:m="https://www.mapbox.com"><path d="M2.0009 31.9147L3.20977 33.5033C3.34032 33.6594 3.50349 33.7848 3.68779 33.8708C3.87207 33.957 4.07301 34.0015 4.27642 34.0015C4.47983 34.0015 4.68077 33.957 4.86507 33.8708C5.04937 33.7848 5.21252 33.6594 5.34308 33.5033L6.68422 31.8948C6.81476 31.7388 6.97794 31.6134 7.16224 31.5273C7.34653 31.4411 7.54747 31.3967 7.75088 31.3967C7.95428 31.3967 8.15521 31.4411 8.33951 31.5273C8.52381 31.6134 8.68699 31.7388 8.81753 31.8948L10.1615 33.5033C10.2921 33.6594 10.4552 33.7848 10.6395 33.8708C10.8238 33.957 11.0248 34.0015 11.2282 34.0015C11.4316 34.0015 11.6325 33.957 11.8168 33.8708C12.0011 33.7848 12.1643 33.6594 12.2948 33.5033L13.636 31.8948C13.7665 31.7388 13.9297 31.6134 14.114 31.5273C14.2984 31.4411 14.4993 31.3967 14.7027 31.3967C14.9061 31.3967 15.107 31.4411 15.2913 31.5273C15.4755 31.6134 15.6387 31.7388 15.7692 31.8948L17.1189 33.5033C17.2494 33.6594 17.4127 33.7848 17.597 33.8708C17.7813 33.957 17.9822 34.0015 18.1856 34.0015C18.3891 34.0015 18.59 33.957 18.7743 33.8708C18.9586 33.7848 19.1217 33.6594 19.2523 33.5033L20.5919 31.8948C20.7226 31.7388 20.8856 31.6134 21.07 31.5273C21.2543 31.4411 21.4552 31.3967 21.6586 31.3967C21.862 31.3967 22.0629 31.4411 22.2473 31.5273C22.4316 31.6134 22.5948 31.7388 22.7253 31.8948L24.0664 33.5033C24.1969 33.6594 24.3602 33.7848 24.5445 33.8708C24.7288 33.957 24.9297 34.0015 25.1332 34.0015C25.3366 34.0015 25.5375 33.957 25.7218 33.8708C25.9061 33.7848 26.0692 33.6594 26.1997 33.5033L27.541 31.8948C27.6715 31.7388 27.8345 31.6134 28.0189 31.5273C28.2032 31.4411 28.4041 31.3967 28.6075 31.3967C28.8109 31.3967 29.0118 31.4411 29.1961 31.5273C29.3805 31.6134 29.5437 31.7388 29.6742 31.8948L31.014 33.5033C31.1445 33.6594 31.3077 33.7848 31.492 33.8708C31.6762 33.957 31.8772 34.0015 32.0805 34.0015C32.2839 34.0015 32.485 33.957 32.6691 33.8708C32.8534 33.7848 33.0167 33.6594 33.1472 33.5033L33.9792 32.5078M16.6087 27.9153C18.5244 26.3891 20.8858 25.5297 23.3344 25.4677H34.0009M17.4661 4.62952L16.5515 2.0013M21.1246 15.1412L24.7185 25.4679M32.2761 11.2599C32.4862 11.1865 32.6756 11.0639 32.8285 10.9022C32.9812 10.7406 33.0932 10.5446 33.1548 10.3309C33.2162 10.1171 33.2258 9.89165 33.1823 9.67348C33.1388 9.45528 33.0436 9.2507 32.9047 9.07685C31.1066 6.83034 28.6565 5.19636 25.8915 4.39985C23.1263 3.60335 20.1825 3.68347 17.4647 4.62917C14.7472 5.57487 12.3895 7.33966 10.7162 9.68063C9.04296 12.0216 8.13643 14.8236 8.12141 17.7011C8.12048 17.9237 8.1729 18.1433 8.27431 18.3413C8.37571 18.5394 8.52313 18.7103 8.70421 18.8398C8.88529 18.9691 9.09475 19.0534 9.31503 19.085C9.53534 19.1168 9.76003 19.0953 9.97029 19.0224L32.2761 11.2599Z" stroke="#00748C" stroke-width="3.25077" stroke-linecap="round" stroke-linejoin="round"/><m:metadata><m:parameters><m:parameter m:name="color-1" m:type="color" m:value="#00748C"/></m:parameters></m:metadata></svg>