<svg width="24" height="24" viewBox="0 0 24 24" fill="none" xmlns="http://www.w3.org/2000/svg" xmlns:m="https://www.mapbox.com"><rect width="24" height="24" rx="12" fill="#fff" fill-opacity="0.85"/><path d="M6 16.2175L6.45333 16.8133C6.50228 16.8718 6.56347 16.9188 6.63258 16.9511C6.70169 16.9834 6.77704 17.0001 6.85332 17.0001C6.9296 17.0001 7.00495 16.9834 7.07406 16.9511C7.14317 16.9188 7.20436 16.8718 7.25332 16.8133L7.75624 16.2101C7.8052 16.1516 7.86639 16.1045 7.9355 16.0723C8.00461 16.0399 8.07996 16.0233 8.15624 16.0233C8.23252 16.0233 8.30787 16.0399 8.37698 16.0723C8.44609 16.1045 8.50728 16.1516 8.55624 16.2101L9.06023 16.8133C9.10919 16.8718 9.17037 16.9188 9.23949 16.9511C9.3086 16.9834 9.38395 17.0001 9.46023 17.0001C9.53651 17.0001 9.61186 16.9834 9.68096 16.9511C9.75008 16.9188 9.81127 16.8718 9.86022 16.8133L10.3632 16.2101C10.4121 16.1516 10.4733 16.1045 10.5424 16.0723C10.6116 16.0399 10.6869 16.0233 10.7632 16.0233C10.8395 16.0233 10.9148 16.0399 10.9839 16.0723C11.053 16.1045 11.1142 16.1516 11.1631 16.2101L11.6693 16.8133C11.7182 16.8718 11.7794 16.9188 11.8485 16.9511C11.9176 16.9834 11.993 17.0001 12.0693 17.0001C12.1456 17.0001 12.2209 16.9834 12.29 16.9511C12.3591 16.9188 12.4203 16.8718 12.4693 16.8133L12.9716 16.2101C13.0206 16.1516 13.0818 16.1045 13.1509 16.0723C13.22 16.0399 13.2954 16.0233 13.3716 16.0233C13.4479 16.0233 13.5233 16.0399 13.5924 16.0723C13.6615 16.1045 13.7227 16.1516 13.7717 16.2101L14.2746 16.8133C14.3235 16.8718 14.3847 16.9188 14.4539 16.9511C14.523 16.9834 14.5983 17.0001 14.6746 17.0001C14.7509 17.0001 14.8262 16.9834 14.8953 16.9511C14.9645 16.9188 15.0256 16.8718 15.0745 16.8133L15.5775 16.2101C15.6265 16.1516 15.6876 16.1045 15.7567 16.0723C15.8259 16.0399 15.9012 16.0233 15.9775 16.0233C16.0538 16.0233 16.1291 16.0399 16.1982 16.0723C16.2673 16.1045 16.3286 16.1516 16.3775 16.2101L16.8799 16.8133C16.9288 16.8718 16.9901 16.9188 17.0592 16.9511C17.1282 16.9834 17.2036 17.0001 17.2798 17.0001C17.3561 17.0001 17.4315 16.9834 17.5006 16.9511C17.5697 16.9188 17.6309 16.8718 17.6799 16.8133L17.9919 16.44M11.4779 14.7177C12.1963 14.1454 13.0819 13.8231 14.0001 13.7999H18M11.7995 5.98558L11.4565 5M13.1714 9.92745L14.5191 13.8M17.3532 8.47199C17.432 8.44446 17.503 8.39846 17.5603 8.33784C17.6176 8.27722 17.6596 8.20376 17.6827 8.12358C17.7057 8.04341 17.7093 7.95888 17.693 7.87707C17.6767 7.79524 17.641 7.71852 17.5889 7.65333C16.9146 6.81089 15.9958 6.19815 14.959 5.89946C13.922 5.60077 12.8181 5.63081 11.7989 5.98545C10.7799 6.34009 9.89571 7.00188 9.26824 7.87975C8.64077 8.75762 8.30082 9.80838 8.29519 10.8874C8.29484 10.9709 8.3145 11.0533 8.35253 11.1275C8.39055 11.2018 8.44584 11.2659 8.51374 11.3144C8.58165 11.3629 8.66019 11.3945 8.7428 11.4064C8.82541 11.4183 8.90967 11.4103 8.98852 11.3829L17.3532 8.47199Z" stroke="#00748C" stroke-width="1.21904" stroke-linecap="round" stroke-linejoin="round"/><m:metadata><m:parameters><m:parameter m:name="color-1" m:type="color" m:value="#00748C"/><m:parameter m:name="color-2" m:type="color" m:value="#FFFFFF"/></m:parameters></m:metadata></svg>