<svg width="250" height="250" viewBox="0 0 250 250" fill="none" xmlns="http://www.w3.org/2000/svg" xmlns:m="https://www.mapbox.com"><rect width="250" height="250" fill="#fff"/><path d="M42.9688 196.335L49.1667 204.48C49.836 205.28 50.6726 205.923 51.6175 206.364C52.5623 206.806 53.5925 207.034 54.6354 207.034C55.6783 207.034 56.7085 206.806 57.6534 206.364C58.5983 205.923 59.4348 205.28 60.1042 204.48L66.9802 196.233C67.6495 195.433 68.4861 194.79 69.431 194.349C70.3759 193.907 71.4061 193.679 72.449 193.679C73.4918 193.679 74.522 193.907 75.4669 194.349C76.4118 194.79 77.2484 195.433 77.9177 196.233L84.8083 204.48C85.4777 205.28 86.3142 205.923 87.2591 206.364C88.204 206.806 89.2342 207.034 90.2771 207.034C91.32 207.034 92.3502 206.806 93.295 206.364C94.2399 205.923 95.0765 205.28 95.7458 204.48L102.622 196.233C103.291 195.433 104.128 194.79 105.073 194.349C106.018 193.907 107.048 193.679 108.091 193.679C109.134 193.679 110.164 193.907 111.109 194.349C112.053 194.79 112.89 195.433 113.559 196.233L120.479 204.48C121.148 205.28 121.985 205.923 122.93 206.364C123.875 206.806 124.905 207.034 125.948 207.034C126.991 207.034 128.021 206.806 128.966 206.364C129.911 205.923 130.747 205.28 131.417 204.48L138.285 196.233C138.955 195.433 139.791 194.79 140.736 194.349C141.681 193.907 142.711 193.679 143.754 193.679C144.797 193.679 145.827 193.907 146.772 194.349C147.717 194.79 148.554 195.433 149.223 196.233L156.099 204.48C156.768 205.28 157.605 205.923 158.55 206.364C159.495 206.806 160.525 207.034 161.568 207.034C162.611 207.034 163.641 206.806 164.586 206.364C165.531 205.923 166.367 205.28 167.036 204.48L173.913 196.233C174.582 195.433 175.418 194.79 176.363 194.349C177.308 193.907 178.338 193.679 179.381 193.679C180.424 193.679 181.454 193.907 182.399 194.349C183.344 194.79 184.181 195.433 184.85 196.233L191.719 204.48C192.388 205.28 193.225 205.923 194.17 206.364C195.114 206.806 196.145 207.034 197.187 207.034C198.23 207.034 199.261 206.806 200.205 206.364C201.15 205.923 201.987 205.28 202.656 204.48L206.922 199.376" stroke="#00748C" stroke-width="16.6667" stroke-linecap="round" stroke-linejoin="round"/><path d="M117.863 175.83C127.685 168.005 139.792 163.599 152.346 163.281H207.033" stroke="#00748C" stroke-width="16.6667" stroke-linecap="round" stroke-linejoin="round"/><path d="M198.19 90.4379C199.267 90.0615 200.238 89.4326 201.022 88.6038C201.805 87.775 202.379 86.7706 202.695 85.6745C203.01 84.5784 203.059 83.4227 202.836 82.3041C202.613 81.1854 202.125 80.1365 201.413 79.2452C192.194 67.7273 179.632 59.3499 165.456 55.2662C151.279 51.1825 136.186 51.5933 122.252 56.4419C108.319 61.2905 96.231 70.3386 87.6522 82.3408C79.0735 94.343 74.4257 108.709 74.3487 123.462C74.3439 124.603 74.6127 125.729 75.1326 126.744C75.6525 127.76 76.4083 128.636 77.3367 129.3C78.2651 129.963 79.339 130.395 80.4684 130.557C81.5979 130.72 82.7499 130.61 83.8279 130.236L198.19 90.4379Z" stroke="#00748C" stroke-width="16.6667" stroke-linecap="round" stroke-linejoin="round"/><path d="M122.259 56.4437L117.57 42.9688" stroke="#00748C" stroke-width="16.6667" stroke-linecap="round" stroke-linejoin="round"/><path d="M141.016 110.337L159.442 163.282" stroke="#00748C" stroke-width="16.6667" stroke-linecap="round" stroke-linejoin="round"/><m:metadata><m:parameters><m:parameter m:name="color-1" m:type="color" m:value="#00748C"/><m:parameter m:name="color-2" m:type="color" m:value="#FFFFFF"/></m:parameters></m:metadata></svg>